# xmcd
#
# Track frame offsets: 
#        150
#        37732
#        49297
#        76377
#        82755
#        88302
#        101142
#        109795
#        133905
#        147947
#        163350
#        171287
#        191472
#        205317
#        226387
#        288150
#
# Disc length: 4394 seconds
#
# Revision: 2
# Processed by: cddbd v1.5.2PL0 Copyright (c) Steve Scherf et al.
# Submitted via: ExactAudioCopy v0.99pb5
#
DISCID=e0112810
DTITLE=Various Artist - Historische Orgel in Nederland, het  [CD 05)  - Amste
DTITLE=rdam, Middelburg, Alkmaar, Utrecht
DYEAR=2000
DGENRE=Orgel
TTITLE0=Buxtehude - Toccata in F, BuxWV 156 · Oude Walenkerk, Amsterda
TTITLE0=m ·Pieter van Dijk
TTITLE1=Weckmann - Lucidor einß hütt der Schaf · Evang. Lutherse Kerk,
TTITLE1=Middelburg · Gustav Leonhardt
TTITLE2=Van den Kerckhoven - Fantasia in d · Evang. Lutherse Kerk, Mid
TTITLE2=delburg · Gustav Leonhardt
TTITLE3=Pachelbel - Fuga nr. 10 in F uit Magnificat sexti toni · Evang
TTITLE3=Lutherse Kerk, Middelburg · Gustav Leonhardt
TTITLE4=Pachelbel - Fuga nr. 13 in G uit Magnificat octavi toni · Evan
TTITLE4=g. Lutherse Kerk, Middelburg · Gustav Leonhardt
TTITLE5=Kerll - Canzona in e · Evang. Lutherse Kerk, Middelburg · Gust
TTITLE5=av Leonhardt
TTITLE6=Blow - Voluntary VIII in g · Evang. Lutherse Kerk, Middelburg 
TTITLE6=· Gustav Leonhardt
TTITLE7=Blow - Voluntary IX in d · Evang. Lutherse Kerk, Middelburg · 
TTITLE7=Gustav Leonhardt
TTITLE8=Blow - Voluntary VII in d · Evang. Lutherse Kerk, Middelburg ·
TTITLE8=Gustav Leonhardt
TTITLE9=Blow - Voluntary XVIII in d · Evang. Lutherse Kerk, Middelburg
TTITLE9=· Gustav Leonhardt
TTITLE10=Bach - Gottes Sohn ist kommen, BWV 600 · Grote of St-Laurensk
TTITLE10=erk, Alkmaar · Leo van Doeselaar
TTITLE11=Bach - Erbarm' dich mein, o Herre Gott, BWV 721 · Grote of St
TTITLE11=Laurenskerk, Alkmaar · Leo van Doeselaar
TTITLE12=Bach - Herr Jesu Christ, dich zu uns wend, BWV 709 · Grote of
TTITLE12=St-Laurenskerk, Alkmaar · Leo van Doeselaar
TTITLE13=Bach - Trio super Herr Jesu Christ, dich zu uns wend, BWV 655
TTITLE13=· Grote of St-Laurenskerk, Alkmaar · Leo van Doeselaar
TTITLE14=Bach - Praeludium et Fuga in c, BWV 546 · Grote of St-Laurens
TTITLE14=kerk, Alkmaar · Leo van Doeselaar
TTITLE15=Bach - Pièce d'Orgue in G, BWV 572 · Jacobikerk, Utrecht · Th
TTITLE15=eo Teunissen
EXTD=YEAR: 2000  ID3G:   0
EXTT0=
EXTT1=
EXTT2=
EXTT3=
EXTT4=
EXTT5=
EXTT6=
EXTT7=
EXTT8=
EXTT9=
EXTT10=
EXTT11=
EXTT12=
EXTT13=
EXTT14=
EXTT15=
PLAYORDER=
